<svg width="153" height="65" viewBox="0 0 153 65" fill="none" xmlns="http://www.w3.org/2000/svg">
<ellipse cx="36" cy="32.5" rx="36" ry="32.5" fill="#AAA4A4" fill-opacity="0.4"/>
<path d="M9.51359 11.1213V23.1014C9.51359 24.2994 9.83385 25.2217 10.4744 25.8682C11.1149 26.5148 12.055 26.8381 13.2947 26.8381C14.5345 26.8381 15.4849 26.5148 16.1461 25.8682C16.8073 25.2217 17.1379 24.2994 17.1379 23.1014V11.1213H22.4377V23.0729C22.4377 24.8604 22.0245 26.3722 21.198 27.6082C20.3715 28.8442 19.2558 29.7761 17.8507 30.4036C16.4664 31.0311 14.9167 31.3448 13.2018 31.3448C11.4868 31.3448 9.9475 31.0406 8.5838 30.4321C7.24076 29.8046 6.17667 28.8727 5.39152 27.6367C4.60636 26.3817 4.21378 24.8604 4.21378 23.0729V11.1213H9.51359Z" fill="#FF395D"/>
<path d="M48.2264 15.0576C50.3752 15.0576 52.0798 15.6567 53.3402 16.8546C54.6213 18.0527 55.2618 19.7166 55.2618 21.8464V31.1452H49.993V22.5024C49.993 21.4755 49.6934 20.6863 49.0941 20.1349C48.5156 19.5644 47.7098 19.2792 46.6767 19.2792C45.6436 19.2792 44.8275 19.5644 44.2282 20.1349C43.6497 20.6863 43.3605 21.4755 43.3605 22.5024V31.1452H38.0916V22.5024C38.0916 21.4755 37.792 20.6863 37.1928 20.1349C36.6143 19.5644 35.8085 19.2792 34.7754 19.2792C33.7423 19.2792 32.9261 19.5644 32.3269 20.1349C31.7484 20.6863 31.4591 21.4755 31.4591 22.5024V31.1452H26.1593V15.2288H31.4591V17.2255C31.9963 16.5599 32.6988 16.0369 33.5666 15.6567C34.4345 15.2573 35.4159 15.0576 36.511 15.0576C37.8127 15.0576 38.9697 15.3144 39.9822 15.8278C41.0153 16.3413 41.8211 17.0733 42.3997 18.0241C42.9988 17.1494 43.815 16.4363 44.8481 15.8848C45.8812 15.3334 47.0073 15.0576 48.2264 15.0576Z" fill="#FF395D"/>
<path d="M57.9146 23.1584C57.9146 21.5231 58.2452 20.0873 58.9064 18.8513C59.5882 17.6153 60.5077 16.6645 61.6648 15.9989C62.8219 15.3334 64.1132 15.0006 65.5389 15.0006C66.758 15.0006 67.822 15.2288 68.7311 15.6852C69.661 16.1415 70.3738 16.7405 70.8697 17.4822V15.2288H76.1695V31.1452H70.8697V28.8918C70.3531 29.6334 69.63 30.2324 68.7002 30.6888C67.791 31.1452 66.727 31.3733 65.5079 31.3733C64.1029 31.3733 62.8219 31.0406 61.6648 30.3751C60.5077 29.6905 59.5882 28.7301 58.9064 27.4941C58.2452 26.2391 57.9146 24.7938 57.9146 23.1584ZM70.8697 23.187C70.8697 21.97 70.4977 21.0096 69.754 20.306C69.0308 19.6025 68.1423 19.2507 67.0885 19.2507C66.0348 19.2507 65.136 19.6025 64.3922 20.306C63.669 20.9907 63.3074 21.9415 63.3074 23.1584C63.3074 24.3755 63.669 25.3453 64.3922 26.0679C65.136 26.7715 66.0348 27.1233 67.0885 27.1233C68.1423 27.1233 69.0308 26.7715 69.754 26.0679C70.4977 25.3643 70.8697 24.404 70.8697 23.187Z" fill="#FF395D"/>
<path d="M90.5723 31.1452L85.3035 24.4706V31.1452H80.0037V10.0374H85.3035V21.7038L90.5412 15.2288H97.0808L89.8906 23.2155L97.1429 31.1452H90.5723Z" fill="#FF395D"/>
<path d="M98.1085 23.1584C98.1085 21.5231 98.439 20.0873 99.1008 18.8513C99.7824 17.6153 100.701 16.6645 101.858 15.9989C103.016 15.3334 104.307 15.0006 105.733 15.0006C106.952 15.0006 108.016 15.2288 108.925 15.6852C109.855 16.1415 110.568 16.7405 111.063 17.4822V15.2288H116.364V31.1452H111.063V28.8918C110.547 29.6334 109.824 30.2324 108.894 30.6888C107.985 31.1452 106.921 31.3733 105.702 31.3733C104.297 31.3733 103.016 31.0406 101.858 30.3751C100.701 29.6905 99.7824 28.7301 99.1008 27.4941C98.439 26.2391 98.1085 24.7938 98.1085 23.1584ZM111.063 23.187C111.063 21.97 110.692 21.0096 109.948 20.306C109.225 19.6025 108.337 19.2507 107.282 19.2507C106.229 19.2507 105.33 19.6025 104.586 20.306C103.863 20.9907 103.501 21.9415 103.501 23.1584C103.501 24.3755 103.863 25.3453 104.586 26.0679C105.33 26.7715 106.229 27.1233 107.282 27.1233C108.337 27.1233 109.225 26.7715 109.948 26.0679C110.692 25.3643 111.063 24.404 111.063 23.187Z" fill="#FF395D"/>
<path d="M130.736 15.0576C132.76 15.0576 134.372 15.6662 135.57 16.8832C136.79 18.0812 137.399 19.7355 137.399 21.8464V31.1452H132.13V22.5024C132.13 21.4375 131.831 20.6103 131.231 20.0208C130.632 19.4313 129.826 19.1365 128.814 19.1365C127.801 19.1365 126.995 19.4313 126.396 20.0208C125.798 20.6103 125.497 21.4375 125.497 22.5024V31.1452H120.198V15.2288H125.497V17.3395C126.035 16.6359 126.758 16.0845 127.667 15.6852C128.576 15.2668 129.599 15.0576 130.736 15.0576Z" fill="#FF395D"/>
<path d="M150.72 27.0092V31.1452H148.024C146.102 31.1452 144.604 30.7173 143.53 29.8616C142.456 28.9869 141.918 27.5702 141.918 25.6115V19.2792H139.811V15.2288H141.918V11.3495H147.218V15.2288H150.689V19.2792H147.218V25.6686C147.218 26.144 147.342 26.4863 147.591 26.6954C147.838 26.9046 148.252 27.0092 148.83 27.0092H150.72Z" fill="#FF395D"/>
<path d="M26.6484 36.4913V53.5569H22.9292V42.457L17.9614 53.5569H15.1455L10.1512 42.457V53.5569H6.43201V36.4913H10.6559L16.5535 49.1805L22.451 36.4913H26.6484Z" fill="white"/>
<path d="M44.2191 40.0121V53.5569H40.4734V51.8455C39.9952 52.4322 39.3665 52.8968 38.5872 53.2391C37.8257 53.565 36.9933 53.728 36.0901 53.728C34.9389 53.728 33.9205 53.508 33.0351 53.0679C32.1495 52.6115 31.45 51.9514 30.9363 51.0875C30.4405 50.2073 30.1926 49.1642 30.1926 47.958V40.0121H33.9117V47.4691C33.9117 48.5448 34.2039 49.3761 34.7884 49.9628C35.3728 50.5333 36.1697 50.8186 37.1793 50.8186C38.2064 50.8186 39.0123 50.5333 39.5968 49.9628C40.1812 49.3761 40.4734 48.5448 40.4734 47.4691V40.0121H44.2191Z" fill="white"/>
<path d="M56.6021 53.5569L51.6078 47.7869V53.5569H47.8886V35.4646H51.6078V45.7576L56.5491 40.0121H61.3839L54.9019 46.8089L61.4371 53.5569H56.6021Z" fill="white"/>
<path d="M71.6909 39.8165C72.8067 39.8165 73.7984 40.0446 74.6663 40.501C75.5341 40.9411 76.2071 41.6013 76.6852 42.4815C77.1811 43.3453 77.4291 44.3885 77.4291 45.6109V53.5569H73.7099V46.0755C73.7099 44.9997 73.4177 44.1766 72.8332 43.6061C72.2488 43.0193 71.4518 42.7259 70.4423 42.7259C69.4151 42.7259 68.6005 43.0193 67.9983 43.6061C67.4139 44.1766 67.1216 44.9997 67.1216 46.0755V53.5569H63.4025V35.4646H67.1216V41.699C67.5998 41.1122 68.2374 40.6559 69.0344 40.3299C69.8314 39.9876 70.7168 39.8165 71.6909 39.8165Z" fill="white"/>
<path d="M82.852 38.3984C82.1967 38.3984 81.6477 38.211 81.2049 37.8361C80.7799 37.4449 80.5674 36.9641 80.5674 36.3936C80.5674 35.8231 80.7799 35.3504 81.2049 34.9755C81.6477 34.5844 82.1967 34.3888 82.852 34.3888C83.5072 34.3888 84.0475 34.5844 84.4725 34.9755C84.9152 35.3504 85.1366 35.8231 85.1366 36.3936C85.1366 36.9641 84.9152 37.4449 84.4725 37.8361C84.0475 38.211 83.5072 38.3984 82.852 38.3984ZM84.685 40.0121V53.5569H80.9658V40.0121H84.685Z" fill="white"/>
<path d="M102.439 40.0121L93.3274 59.9625H89.3686L92.5569 53.2146L86.6593 40.0121H90.8303L94.6286 49.4739L98.4812 40.0121H102.439Z" fill="white"/>
<path d="M103.488 46.7355C103.488 45.3664 103.78 44.1521 104.364 43.0927C104.966 42.0332 105.772 41.2183 106.782 40.6478C107.809 40.0773 108.951 39.792 110.209 39.792C111.307 39.792 112.263 39.9958 113.078 40.4033C113.91 40.8107 114.574 41.3242 115.071 41.9435V40.0121H118.816V53.5569H115.071V51.5765C114.593 52.2122 113.928 52.7419 113.078 53.1657C112.246 53.5732 111.28 53.7769 110.182 53.7769C108.943 53.7769 107.809 53.4836 106.782 52.8968C105.772 52.31 104.966 51.4868 104.364 50.4274C103.78 49.3516 103.488 48.121 103.488 46.7355ZM115.071 46.7845C115.071 45.9532 114.893 45.2442 114.539 44.6574C114.184 44.0543 113.706 43.5979 113.104 43.2883C112.503 42.9623 111.856 42.7993 111.165 42.7993C110.474 42.7993 109.837 42.9541 109.252 43.2638C108.668 43.5735 108.19 44.0299 107.818 44.633C107.464 45.2197 107.287 45.9206 107.287 46.7355C107.287 47.5506 107.464 48.2677 107.818 48.8871C108.19 49.4902 108.668 49.9547 109.252 50.2807C109.855 50.6067 110.492 50.7697 111.165 50.7697C111.856 50.7697 112.503 50.6148 113.104 50.3052C113.706 49.9792 114.184 49.5227 114.539 48.936C114.893 48.3329 115.071 47.6157 115.071 46.7845Z" fill="white"/>
</svg>
